# Blender v2.79 (sub 0) OBJ File: ''
# www.blender.org
mtllib foot1.mtl
o mesh3.002_mesh3-geometry_male-02-1noCullingID_male-02-1noCullin
v -38.144539 4.033176 15.502476
v -38.149284 0.431512 15.472356
v -33.522182 0.413706 16.872576
v -41.048199 3.333336 12.207140
v -41.051979 0.462843 12.183134
v -39.350761 0.501186 7.329915
v -39.346317 3.872720 7.358109
v -34.911068 5.222373 10.017143
v -32.437466 6.752742 5.827392
v -37.421009 5.013753 2.837958
v -30.258217 8.240450 2.688942
v -33.480904 6.957309 0.018435
v -26.703766 11.911404 -1.084500
v -29.775900 12.336840 -3.514631
v -23.440910 11.809791 -6.709595
v -26.683567 12.208183 -8.087700
v -21.226566 11.716016 -9.945669
v -24.072268 12.032485 -10.378307
v -23.145741 7.504831 -10.974319
v -20.039295 7.493263 -10.082738
v -19.523855 11.483740 -8.681242
v -20.052916 11.393543 -5.269723
v -22.482883 11.440822 -0.415157
v -25.564119 6.907278 4.746112
v -26.880997 4.947188 9.132149
v -29.808414 3.820486 13.053916
v -33.518402 3.284200 16.896582
v -29.812870 0.440989 13.025656
v -26.886911 0.470006 9.094691
v -24.691755 0.499519 5.218594
v -24.688131 3.257464 5.241639
v -21.977694 2.678653 0.590174
v -22.749348 7.407266 0.620150
v -18.660234 3.159548 -4.023750
v -19.285879 7.444413 -4.364957
v -18.165766 7.476012 -8.317201
v -19.690756 3.215772 -10.578663
v -17.466860 3.195750 -8.537540
v -17.470261 0.605292 -8.559187
v -19.694160 0.625315 -10.600307
v -22.973579 0.596328 -6.619170
v -18.663635 0.569091 -4.045395
v -21.980513 0.534826 0.572262
v -26.835457 2.709352 -2.310744
v -26.838272 0.565524 -2.328656
v -31.255301 2.737284 -4.950150
v -31.258118 0.593456 -4.968063
v -27.098640 0.622396 -9.082540
v -27.095236 3.212853 -9.060895
v -23.113045 0.637746 -11.545768
v -23.109642 3.228204 -11.524124
v -26.621832 7.490772 -8.745782
v -30.818119 7.458258 -4.198293
v -34.779495 3.321237 -0.784638
v -34.783115 0.563293 -0.807682
v -30.015642 0.533165 2.039319
v -32.445675 0.505090 5.775163
v -34.917324 0.473205 9.977428
v -37.426853 0.536529 2.800554
vt 0.765212 0.047881
vt 0.757754 0.072694
vt 0.728102 0.079284
vt 0.955775 0.137062
vt 0.954976 0.114221
vt 0.919497 0.109859
vt 0.980478 0.141721
vt 0.975495 0.123681
vt 0.956233 0.160942
vt 0.565107 0.019317
vt 0.591990 0.040881
vt 0.561796 0.036835
vt 0.591473 0.011237
vt 0.923939 0.237276
vt 0.897053 0.209072
vt 0.891066 0.221475
vt 0.638221 0.046666
vt 0.624976 0.013484
vt 0.637637 0.013254
vt 0.625560 0.046896
vt 0.638752 0.077065
vt 0.626091 0.077296
vt 0.892753 0.059736
vt 0.920833 0.031595
vt 0.886925 0.047327
vt 0.671830 0.012328
vt 0.698120 0.011255
vt 0.698785 0.049489
vt 0.726960 0.013681
vt 0.727571 0.048790
vt 0.757820 0.020303
vt 0.699381 0.083750
vt 0.673039 0.081736
vt 0.672468 0.048945
vt 0.567705 0.056934
vt 0.592484 0.069253
vt 0.776762 0.135847
vt 0.756229 0.136246
vt 0.769518 0.172356
vt 0.780488 0.112058
vt 0.767166 0.102440
vt 0.798647 0.081588
vt 0.809602 0.100288
vt 0.815969 0.133482
vt 0.848027 0.131809
vt 0.840076 0.094491
vt 0.874353 0.131744
vt 0.873018 0.101010
vt 0.914143 0.133120
vt 0.972361 0.087202
vt 0.990266 0.081565
vt 0.963680 0.060841
vt 0.983252 0.054504
vt 0.987599 0.183505
vt 0.974095 0.180474
vt 0.982129 0.210966
vt 0.977586 0.155152
vt 0.921756 0.158337
vt 0.875938 0.168181
vt 0.844220 0.174284
vt 0.813106 0.171753
vt 0.782079 0.162083
vt 0.803784 0.191174
vt 0.834759 0.201305
vt 0.861455 0.209246
vt 0.867472 0.192308
vt 0.906575 0.180716
vt 0.930494 0.222199
vt 0.941923 0.197272
vt 0.953428 0.172039
vt 0.966142 0.207239
vt 0.975875 0.238207
vt 0.957597 0.233245
vt 0.952141 0.248579
vt 0.970898 0.254271
vt 0.927431 0.046694
vt 0.948663 0.019875
vt 0.954645 0.035111
vt 0.970118 0.012124
vt 0.975831 0.027771
vt 0.939505 0.071184
vt 0.903387 0.087924
vt 0.862826 0.076523
vt 0.856476 0.059589
vt 0.829210 0.068416
vt 0.951669 0.095964
vn -0.0013 -1.0000 -0.0084
vn 0.1041 0.9937 0.0424
vn 0.8122 -0.0059 0.5834
vn -0.5127 -0.0065 0.8585
vn -0.7033 0.0069 -0.7109
vn 0.1886 -0.9265 -0.3256
vn -0.4073 0.6443 0.6473
vn -0.3633 -0.8131 0.4549
vn 0.2416 -0.2893 0.9263
vn -0.8882 0.3167 0.3329
vn -0.9355 -0.3533 -0.0030
vn -0.4180 -0.8926 -0.1689
vn -0.7839 0.5921 -0.1868
vn -0.0879 0.9738 0.2097
vn -0.1663 0.9515 0.2589
vn -0.7225 0.6343 -0.2749
vn -0.2338 0.9067 0.3511
vn -0.7235 0.6775 -0.1328
vn -0.1486 0.8987 0.4127
vn -0.4966 0.8630 -0.0928
vn -0.3112 0.4225 -0.8513
vn 0.2744 0.8352 -0.4766
vn -0.1604 0.1126 -0.9806
vn 0.4741 0.1476 -0.8680
vn 0.7369 0.5355 -0.4126
vn 0.6115 0.7671 0.1941
vn 0.5635 0.6699 0.4834
vn 0.5644 0.5346 0.6290
vn 0.6775 0.4553 0.5777
vn 0.5237 0.5885 0.6160
vn 0.2125 0.6485 0.7309
vn 0.4641 -0.8043 0.3712
vn 0.5909 -0.7118 0.3798
vn 0.6621 -0.6983 0.2722
vn 0.8755 0.1313 0.4651
vn 0.7887 -0.2222 0.5732
vn 0.8114 0.1206 0.5719
vn 0.9022 0.0742 0.4248
vn 0.8999 0.1797 0.3973
vn 0.9323 0.2239 -0.2839
vn 0.5538 0.0747 -0.8293
vn 0.9817 0.1046 -0.1593
vn 0.8280 -0.5034 -0.2469
vn 0.3404 -0.5585 -0.7565
vn 0.6143 -0.7159 0.3317
vn -0.5907 0.0633 -0.8044
vn -0.4577 -0.7040 -0.5430
vn -0.8328 -0.2290 -0.5040
vn -0.2300 -0.5774 -0.7834
vn 0.0041 0.0694 -0.9976
vn -0.6531 0.1015 -0.7504
vn -0.7783 0.2206 -0.5878
vn -0.7759 0.1622 -0.6097
vn -0.3852 -0.8113 -0.4398
vn 0.1273 -0.9664 -0.2234
vn -0.7771 -0.4449 -0.4453
vn -0.4348 0.7918 -0.4289
usemtl male-02-1noCullingID_male-02-1noCulling.JP
s off
f 2/1/1 5/2/1 6/3/1
f 15/4/2 16/5/2 14/6/2
f 17/7/2 16/5/2 15/4/2
f 17/7/2 18/8/2 16/5/2
f 22/9/2 17/7/2 15/4/2
f 39/10/1 41/11/1 40/12/1
f 39/10/1 42/13/1 41/11/1
f 42/14/3 32/15/3 43/16/3
f 44/17/4 43/18/4 32/19/4
f 44/17/4 45/20/4 43/18/4
f 46/21/4 45/20/4 44/17/4
f 46/21/4 47/22/4 45/20/4
f 46/23/5 48/24/5 47/25/5
f 30/26/1 29/27/1 57/28/1
f 28/29/1 57/28/1 29/27/1
f 57/28/1 28/29/1 58/30/1
f 28/29/1 2/1/1 58/30/1
f 28/29/1 3/31/1 2/1/1
f 58/30/1 2/1/1 6/3/1
f 57/28/1 58/30/1 6/3/1
f 57/28/1 6/3/1 59/32/1
f 57/28/1 59/32/1 55/33/1
f 32/19/6 56/34/6 44/17/6
f 44/17/6 56/34/6 46/21/6
f 40/12/1 41/11/1 50/35/1
f 41/11/1 48/36/1 50/35/1
f 41/11/1 45/20/1 48/36/1
f 45/20/1 41/11/1 42/13/1
f 42/13/1 43/18/1 45/20/1
f 45/20/1 47/22/1 48/36/1
s 1
f 1/37/7 2/38/8 3/39/9
f 2/38/8 1/37/7 4/40/10
f 5/41/11 2/38/8 4/40/10
f 6/42/12 5/41/11 7/43/13
f 7/43/13 5/41/11 4/40/10
f 1/37/7 7/43/13 4/40/10
f 7/43/13 1/37/7 8/44/14
f 9/45/15 7/43/13 8/44/14
f 9/45/15 10/46/16 7/43/13
f 11/47/17 10/46/16 9/45/15
f 11/47/17 12/48/18 10/46/16
f 13/49/19 12/48/18 11/47/17
f 13/49/19 14/6/20 12/48/18
f 15/4/2 14/6/20 13/49/19
f 18/50/21 17/51/22 19/52/23
f 17/51/22 20/53/24 19/52/23
f 17/54/22 21/55/25 20/56/24
f 21/57/25 17/7/22 22/9/26
f 22/9/26 15/4/2 23/58/27
f 23/58/27 15/4/2 13/49/19
f 23/58/27 13/49/19 24/59/28
f 24/59/28 13/49/19 11/47/17
f 24/59/28 11/47/17 25/60/29
f 25/60/29 11/47/17 9/45/15
f 25/60/29 9/45/15 26/61/30
f 26/61/30 9/45/15 8/44/14
f 26/61/30 8/44/14 27/62/31
f 8/44/14 1/37/7 27/62/31
f 1/37/7 3/39/9 27/62/31
f 26/61/30 27/62/31 3/39/9
f 28/63/32 26/61/30 3/39/9
f 25/60/29 26/61/30 28/63/32
f 29/64/33 25/60/29 28/63/32
f 30/65/34 25/60/29 29/64/33
f 30/65/34 31/66/35 25/60/29
f 32/15/36 31/66/35 30/65/34
f 32/15/36 24/59/28 31/66/35
f 32/15/36 33/67/37 24/59/28
f 34/68/38 33/67/37 32/15/36
f 35/69/39 33/67/37 34/68/38
f 35/69/39 23/58/27 33/67/37
f 22/70/26 23/58/27 35/69/39
f 36/71/40 22/70/26 35/69/39
f 21/55/25 22/70/26 36/71/40
f 21/55/25 36/71/40 20/56/24
f 20/56/24 36/71/40 37/72/41
f 36/71/40 38/73/42 37/72/41
f 38/73/42 36/71/40 35/69/39
f 38/73/42 35/69/39 34/68/38
f 39/74/43 38/73/42 34/68/38
f 37/72/41 38/73/42 39/74/43
f 37/72/41 39/74/43 40/75/44
f 39/74/43 34/68/38 42/14/45
f 42/14/45 34/68/38 32/15/36
f 49/76/46 48/24/47 46/23/48
f 49/76/46 50/77/49 48/24/47
f 51/78/50 50/77/49 49/76/46
f 51/78/50 40/79/44 50/77/49
f 51/78/50 37/80/41 40/79/44
f 20/53/24 37/80/41 51/78/50
f 19/52/23 20/53/24 51/78/50
f 19/52/23 51/78/50 49/76/46
f 19/52/23 49/76/46 52/81/51
f 49/76/46 46/23/48 52/81/51
f 52/81/51 46/23/48 53/82/52
f 46/23/48 54/83/53 53/82/52
f 46/23/48 55/84/54 54/83/53
f 56/34/55 55/33/54 46/21/48
f 56/34/55 57/28/1 55/33/54
f 30/26/34 57/28/1 56/34/55
f 59/85/56 6/42/12 7/43/13
f 59/85/56 7/43/13 10/46/16
f 54/83/53 59/85/56 10/46/16
f 55/84/54 59/85/56 54/83/53
f 54/83/53 10/46/16 12/48/18
f 53/82/52 54/83/53 12/48/18
f 53/82/52 12/48/18 14/6/20
f 16/86/57 53/82/52 14/6/20
f 52/81/51 53/82/52 16/86/57
f 16/86/57 18/50/21 52/81/51
f 18/50/21 19/52/23 52/81/51
f 32/19/36 30/26/34 56/34/55
f 23/58/27 24/59/28 33/67/37
f 24/59/28 25/60/29 31/66/35
